<svg xmlns="http://www.w3.org/2000/svg" width="960" height="540" viewBox="0 0 960 540">
  <rect width="960" height="540" fill="#151a22"/>
  <rect y="0" width="960" height="172" fill="#243447"/>
  <rect y="360" width="960" height="180" fill="#2f3b24"/>
  <g fill="#56616f"><rect x="70" y="70" width="80" height="32"/><rect x="110" y="38" width="120" height="32"/><rect x="650" y="90" width="96" height="32"/><rect x="700" y="58" width="128" height="32"/></g>
  <g fill="#b15f2a"><rect x="120" y="395" width="34" height="34"/><rect x="154" y="429" width="34" height="34"/><rect x="780" y="390" width="34" height="34"/></g>
  <g fill="#0b0f14" opacity=".28"><rect x="0" y="492" width="960" height="16"/><rect x="0" y="524" width="960" height="16"/></g>
  <g fill="#d9c58a" opacity=".75"><rect x="820" y="52" width="10" height="10"/><rect x="846" y="86" width="8" height="8"/><rect x="74" y="118" width="8" height="8"/><rect x="430" y="42" width="10" height="10"/></g>
</svg>
